<svg xmlns="http://www.w3.org/2000/svg" viewBox="0 0 212.91 200.63"><defs><style>.cls-1{fill:#262262;}.cls-2,.cls-5{fill:#00aeef;}.cls-2{fill-rule:evenodd;}.cls-3{fill:#fbb040;}.cls-4{fill:#da1c5c;}.cls-6{fill:#00a651;}</style></defs><title>Asset 2</title><g id="Layer_2" data-name="Layer 2"><g id="Layer_1-2" data-name="Layer 1"><path class="cls-1" d="M0,122.6H10.48V108.33l19.74-5.62V122.6H48.73v16.7H30.21v29.15q0,7.9,1.59,11.31t6,3.42a19.85,19.85,0,0,0,5.24-.61A35.41,35.41,0,0,0,48,180.75l3.49,15.18a50,50,0,0,1-9.56,3.34,45.5,45.5,0,0,1-11.08,1.37q-10.48,0-15.41-5.39t-4.93-17.69V139.3H0Z"/><path class="cls-1" d="M118,141.12a25.75,25.75,0,0,0-8.5-1.67,13.91,13.91,0,0,0-8.88,2.81,13.53,13.53,0,0,0-4.78,7.21v49H76.06V122.6H91.39l2.28,10h.61a20.7,20.7,0,0,1,7-8.65,17.73,17.73,0,0,1,10.32-3,28.75,28.75,0,0,1,9,1.67Z"/><path class="cls-1" d="M146.35,122.6h19.74v75.91H146.35Z"/><polygon class="cls-2" points="156.49 83.07 212.91 28.27 154.73 105.96 149.66 98.62 119.26 54.65 156.49 83.07"/><circle class="cls-3" cx="155.59" cy="52.3" r="12.12"/><circle class="cls-4" cx="155.59" cy="21.4" r="6.49"/><circle class="cls-5" cx="173.21" cy="31.87" r="8.24"/><circle class="cls-6" cx="167.71" cy="5.36" r="5.36"/></g></g></svg>